<svg width="1693" height="1000" viewBox="0 0 1693 1000" fill="none" xmlns="http://www.w3.org/2000/svg">
<path d="M68.6348 591.412C106.541 591.412 137.271 622.107 137.271 659.971C137.27 697.836 106.541 728.53 68.6348 728.53C30.7289 728.53 0.000136235 697.835 0 659.971C0 622.107 30.7288 591.412 68.6348 591.412Z" fill="#00BCFE"/>
<path d="M68.6348 591.412C106.541 591.412 137.271 622.107 137.271 659.971C137.27 697.836 106.541 728.53 68.6348 728.53C30.7289 728.53 0.000136235 697.835 0 659.971C0 622.107 30.7288 591.412 68.6348 591.412Z" stroke="#00BCFE"/>
<path d="M1624.36 271.467C1662.27 271.467 1693 302.162 1693 340.026C1693 377.89 1662.27 408.586 1624.36 408.586C1586.46 408.585 1555.73 377.89 1555.73 340.026C1555.73 302.162 1586.46 271.467 1624.36 271.467Z" fill="#00BCFE"/>
<path d="M1624.36 271.467C1662.27 271.467 1693 302.162 1693 340.026C1693 377.89 1662.27 408.586 1624.36 408.586C1586.46 408.585 1555.73 377.89 1555.73 340.026C1555.73 302.162 1586.46 271.467 1624.36 271.467Z" stroke="#00BCFE"/>
<path d="M1078.06 0C1096.26 0.00017143 1113.72 7.22369 1126.59 20.0811L1394.76 287.954C1407.97 301.143 1415.7 318.824 1416.42 337.463C1417.13 356.102 1410.78 374.325 1398.63 388.487L1216.73 600.473C1147.01 681.715 1045.13 728.523 938.005 728.523H508.872L663.474 882.954C676.345 895.812 683.577 913.249 683.577 931.432C683.577 949.615 676.346 967.054 663.475 979.912L663.468 979.919C657.095 986.285 649.529 991.335 641.202 994.78C632.875 998.226 623.95 1000 614.937 1000C605.924 1000 596.999 998.226 588.672 994.78C580.345 991.335 572.778 986.285 566.405 979.919L298.235 712.03C285.032 698.841 277.299 681.158 276.582 662.52C275.866 643.881 282.219 625.657 294.371 611.495L476.271 399.51C545.984 318.267 647.854 271.459 754.975 271.459H1184.12L1029.52 117.042C1023.15 110.676 1018.09 103.118 1014.64 94.7998C1011.19 86.4822 1009.42 77.5665 1009.42 68.5635C1009.42 59.5604 1011.19 50.6449 1014.64 42.3271C1018.09 34.0094 1023.15 26.4471 1029.53 20.0811C1042.4 7.22397 1059.86 -5.30887e-05 1078.06 0ZM754.975 408.58C687.843 408.58 624.184 437.829 580.495 488.744L492.401 591.402H938.005C1005.14 591.402 1068.81 562.152 1112.5 511.238L1200.6 408.58H754.975Z" fill="#00BCFE"/>
<path d="M1078.06 0C1096.26 0.00017143 1113.72 7.22369 1126.59 20.0811L1394.76 287.954C1407.97 301.143 1415.7 318.824 1416.42 337.463C1417.13 356.102 1410.78 374.325 1398.63 388.487L1216.73 600.473C1147.01 681.715 1045.13 728.523 938.005 728.523H508.872L663.474 882.954C676.345 895.812 683.577 913.249 683.577 931.432C683.577 949.615 676.346 967.054 663.475 979.912L663.468 979.919C657.095 986.285 649.529 991.335 641.202 994.78C632.875 998.226 623.95 1000 614.937 1000C605.924 1000 596.999 998.226 588.672 994.78C580.345 991.335 572.778 986.285 566.405 979.919L298.235 712.03C285.032 698.841 277.299 681.158 276.582 662.52C275.866 643.881 282.219 625.657 294.371 611.495L476.271 399.51C545.984 318.267 647.854 271.459 754.975 271.459H1184.12L1029.52 117.042C1023.15 110.676 1018.09 103.118 1014.64 94.7998C1011.19 86.4822 1009.42 77.5665 1009.42 68.5635C1009.42 59.5604 1011.19 50.6449 1014.64 42.3271C1018.09 34.0094 1023.15 26.4471 1029.53 20.0811C1042.4 7.22397 1059.86 -5.30887e-05 1078.06 0ZM754.975 408.58C687.843 408.58 624.184 437.829 580.495 488.744L492.401 591.402H938.005C1005.14 591.402 1068.81 562.152 1112.5 511.238L1200.6 408.58H754.975Z" stroke="#00BCFE"/>
</svg>
